<svg width="19" height="19" viewBox="0 0 44 44" fill="none" xmlns="http://www.w3.org/2000/svg" class="h-4"><path d="M39.2857 0H4.71429C2.11161 0 0 2.11161 0 4.71429V39.2857C0 41.8884 2.11161 44 4.71429 44H39.2857C41.8884 44 44 41.8884 44 39.2857V4.71429C44 2.11161 41.8884 0 39.2857 0ZM23.9446 34.3161C23.9446 38.5982 21.4304 40.5527 17.767 40.5527C14.4571 40.5527 12.542 38.8437 11.5598 36.7714L14.9286 34.7384C15.5768 35.8875 16.1661 36.8598 17.5902 36.8598C18.9455 36.8598 19.8098 36.3295 19.8098 34.2571V20.2027H23.9446V34.3161V34.3161ZM33.7268 40.5527C29.8866 40.5527 27.4018 38.7259 26.1938 36.3295L29.5625 34.3848C30.4464 35.8286 31.6054 36.8991 33.6384 36.8991C35.3473 36.8991 36.4473 36.0446 36.4473 34.8562C36.4473 33.442 35.3277 32.9411 33.4321 32.1062L32.4009 31.6643C29.4152 30.3973 27.4411 28.7964 27.4411 25.4277C27.4411 22.3241 29.808 19.967 33.4911 19.967C36.1232 19.967 38.0089 20.8804 39.3643 23.2768L36.1429 25.3393C35.4357 24.0723 34.6696 23.5714 33.4812 23.5714C32.2732 23.5714 31.5071 24.3375 31.5071 25.3393C31.5071 26.5768 32.2732 27.0777 34.0509 27.8536L35.0821 28.2955C38.5982 29.7982 40.5723 31.3402 40.5723 34.7973C40.5723 38.5098 37.6455 40.5527 33.7268 40.5527V40.5527Z" fill="#FFD747"></path></svg>