<svg width="20" height="20" viewBox="0 0 28 28" fill="none" xmlns="http://www.w3.org/2000/svg" class="w-7 h-6"><path d="M26.688 0H1.312C0.587402 0 0 0.587402 0 1.312V26.688C0 27.4126 0.587402 28 1.312 28H26.688C27.4126 28 28 27.4126 28 26.688V1.312C28 0.587402 27.4126 0 26.688 0Z" fill="#3178C6"></path><path fill-rule="evenodd" clip-rule="evenodd" d="M16.245 21.759V24.827C16.8024 25.1021 17.3965 25.2958 18.009 25.402C18.7168 25.5326 19.4353 25.5969 20.155 25.594C20.8565 25.5973 21.5564 25.5266 22.243 25.383C22.8595 25.2584 23.4477 25.0211 23.978 24.683C24.4703 24.3652 24.8761 23.9302 25.159 23.417C25.6656 22.3543 25.7325 21.1346 25.345 20.023C25.1815 19.6073 24.9379 19.2277 24.628 18.906C24.2954 18.5638 23.9175 18.2688 23.505 18.029C23.03 17.7508 22.5366 17.5056 22.028 17.295C21.628 17.129 21.268 16.9676 20.948 16.811C20.6638 16.6749 20.3918 16.5146 20.135 16.332C19.9339 16.191 19.7592 16.0156 19.619 15.814C19.4979 15.6309 19.4348 15.4155 19.438 15.196C19.4353 14.9939 19.4916 14.7955 19.6 14.625C19.7177 14.4465 19.8747 14.2974 20.059 14.189C20.2843 14.0563 20.5294 13.9608 20.785 13.906C21.0988 13.8363 21.4196 13.8027 21.741 13.806C22.0113 13.8069 22.2813 13.8263 22.549 13.864C22.8381 13.9031 23.1241 13.9622 23.405 14.041C23.6907 14.1202 23.9701 14.2204 24.241 14.341C24.5038 14.4581 24.7552 14.5994 24.992 14.763V11.9C24.4991 11.7135 23.988 11.5794 23.467 11.5C22.8379 11.4084 22.2027 11.3653 21.567 11.371C20.8721 11.3672 20.1793 11.4461 19.503 11.606C18.8917 11.7457 18.3105 11.9939 17.787 12.339C17.3007 12.6629 16.8991 13.0988 16.616 13.61C16.316 14.1776 16.1675 14.8131 16.185 15.455C16.1628 16.3038 16.4424 17.1329 16.974 17.795C17.6262 18.5291 18.4486 19.0919 19.369 19.434C19.789 19.6073 20.1807 19.777 20.544 19.943C20.8718 20.0888 21.1869 20.2618 21.486 20.46C21.7272 20.6169 21.9391 20.8149 22.112 21.045C22.264 21.2537 22.3447 21.5058 22.342 21.764C22.3434 21.9574 22.2937 22.1478 22.198 22.316C22.0917 22.4967 21.9422 22.6482 21.763 22.757C21.5388 22.8937 21.2935 22.9923 21.037 23.049C20.7029 23.1237 20.3613 23.1589 20.019 23.154C19.3473 23.1527 18.681 23.0343 18.05 22.804C17.3908 22.5661 16.7795 22.2122 16.245 21.759V21.759ZM11.091 14.121H15.091V11.594H3.938V14.121H7.92V25.375H11.091V14.121Z" fill="white"></path></svg>